<?xml version="1.0" encoding="utf-8"?>
<!-- Generator: Adobe Illustrator 21.1.0, SVG Export Plug-In . SVG Version: 6.00 Build 0)  -->
<svg version="1.1" id="Layer_1" xmlns="http://www.w3.org/2000/svg" xmlns:xlink="http://www.w3.org/1999/xlink" x="0px" y="0px"
	 viewBox="0 0 78 72" style="enable-background:new 0 0 78 72;" xml:space="preserve">
<style type="text/css">
	.st0{fill:#FFB300;}
	.st1{fill-rule:evenodd;clip-rule:evenodd;fill:#FFB300;}
</style>
<path class="st0" d="M28.3,72c-6.8,0-11.9-3-15.2-9C9.8,57,6.3,51,2.8,45.2c-3.6-6-3.7-12.1-0.1-18.1c3.5-5.9,6.9-11.9,10.2-17.8
	c3.4-6.2,8.6-9.2,15.6-9.1C35.3,0.2,42.2,0.2,49,0c7-0.1,12.3,2.9,15.7,9c3.3,5.9,6.8,11.9,10.3,17.8c3.6,6,3.7,12.1,0.1,18.1
	c-3.5,5.8-6.9,11.8-10.2,17.8c-3.4,6.2-8.6,9.2-15.6,9.1c-6.8-0.1-13.7-0.1-20.5,0.1C28.7,72,28.5,72,28.3,72z M28.2,1.1
	c-6.5,0-11.3,2.9-14.5,8.6c-3.3,6-6.7,12-10.2,17.9C0.2,33.3,0.2,39,3.6,44.7c3.5,5.8,7,11.8,10.4,17.8c3.2,5.8,8.2,8.7,14.8,8.5
	c6.8-0.1,13.7-0.2,20.5-0.1c0.1,0,0.2,0,0.3,0c6.5,0,11.3-2.9,14.5-8.6c3.3-6,6.7-12,10.2-17.9c3.4-5.7,3.4-11.5-0.1-17.1
	c-3.5-5.8-7-11.8-10.4-17.8C60.7,3.7,55.7,0.8,49,1c-6.8,0.1-13.7,0.2-20.5,0.1C28.4,1.1,28.3,1.1,28.2,1.1z"/>
<g id="Forma_1">
	<g>
		<path class="st1" d="M39.5,22.5c-6.4,0-11.6,5.2-11.6,11.6c0,4.9,3,9.2,7.5,10.9v6.2c0,0.4,0.3,0.7,0.7,0.7h0.7v1.4
			c0,0.4,0.3,0.7,0.7,0.7h4.1c0.4,0,0.7-0.3,0.7-0.7v-1.4h0.7c0.4,0,0.7-0.3,0.7-0.7V45c4.5-1.7,7.5-6,7.5-10.9
			C51.1,27.7,45.9,22.5,39.5,22.5z M42.2,50.6h-0.7c-0.4,0-0.7,0.3-0.7,0.7v1.4h-2.7v-1.4c0-0.4-0.3-0.7-0.7-0.7h-0.7v-3.4h5.5V50.6
			z M42.7,43.9c-0.3,0.1-0.5,0.4-0.5,0.7v1.2h-5.5v-1.2c0-0.3-0.2-0.6-0.5-0.7c-4.2-1.4-7.1-5.3-7.1-9.8c0-5.7,4.6-10.3,10.3-10.3
			s10.3,4.6,10.3,10.3C49.7,38.6,46.9,42.5,42.7,43.9z M39.5,21.1c0.4,0,0.7-0.3,0.7-0.7v-2.7c0-0.4-0.3-0.7-0.7-0.7
			s-0.7,0.3-0.7,0.7v2.7C38.8,20.8,39.1,21.1,39.5,21.1z M55.9,33.4h-2.7c-0.4,0-0.7,0.3-0.7,0.7s0.3,0.7,0.7,0.7h2.7
			c0.4,0,0.7-0.3,0.7-0.7S56.3,33.4,55.9,33.4z M25.8,33.4H23c-0.4,0-0.7,0.3-0.7,0.7s0.3,0.7,0.7,0.7h2.7c0.4,0,0.7-0.3,0.7-0.7
			S26.1,33.4,25.8,33.4z M50.6,22L48.7,24c-0.3,0.3-0.3,0.7,0,1c0.1,0.1,0.3,0.2,0.5,0.2c0.2,0,0.4-0.1,0.5-0.2l1.9-1.9
			c0.3-0.3,0.3-0.7,0-1C51.3,21.7,50.9,21.7,50.6,22z M29.3,43.3l-1.9,1.9c-0.3,0.3-0.3,0.7,0,1c0.1,0.1,0.3,0.2,0.5,0.2
			c0.2,0,0.4-0.1,0.5-0.2l1.9-1.9c0.3-0.3,0.3-0.7,0-1C30,43.1,29.6,43.1,29.3,43.3z M49.6,43.3c-0.3-0.3-0.7-0.3-1,0
			c-0.3,0.3-0.3,0.7,0,1l1.9,1.9c0.1,0.1,0.3,0.2,0.5,0.2s0.4-0.1,0.5-0.2c0.3-0.3,0.3-0.7,0-1L49.6,43.3z M29.3,24.9
			c0.1,0.1,0.3,0.2,0.5,0.2s0.4-0.1,0.5-0.2c0.3-0.3,0.3-0.7,0-1L28.3,22c-0.3-0.3-0.7-0.3-1,0c-0.3,0.3-0.3,0.7,0,1L29.3,24.9z
			 M39.5,25.9c-4.5,0-8.2,3.7-8.2,8.2c0,0.4,0.3,0.7,0.7,0.7s0.7-0.3,0.7-0.7c0-3.8,3.1-6.9,6.9-6.9c0.4,0,0.7-0.3,0.7-0.7
			S39.8,25.9,39.5,25.9z"/>
	</g>
</g>
</svg>
