<?xml version="1.0" encoding="utf-8"?>
<!-- Generator: Adobe Illustrator 21.1.0, SVG Export Plug-In . SVG Version: 6.00 Build 0)  -->
<svg version="1.1" id="Layer_1" xmlns="http://www.w3.org/2000/svg" xmlns:xlink="http://www.w3.org/1999/xlink" x="0px" y="0px"
	 viewBox="0 0 78 72" style="enable-background:new 0 0 78 72;" xml:space="preserve">
<style type="text/css">
	.st0{fill-rule:evenodd;clip-rule:evenodd;fill:#FC5C7D;}
	.st1{fill:url(#SVGID_1_);}
</style>
<g id="Forma_1">
	<g>
		<path class="st0" d="M39,22.3c-6.4,0-11.6,5.1-11.6,11.3c0,4.7,3,8.9,7.5,10.6v6.1c0,0.4,0.3,0.7,0.7,0.7h0.7v1.3
			c0,0.4,0.3,0.7,0.7,0.7H41c0.4,0,0.7-0.3,0.7-0.7V51h0.7c0.4,0,0.7-0.3,0.7-0.7v-6.1c4.5-1.7,7.5-5.9,7.5-10.6
			C50.6,27.4,45.4,22.3,39,22.3z M41.7,49.7H41c-0.4,0-0.7,0.3-0.7,0.7v1.3h-2.7v-1.3c0-0.4-0.3-0.7-0.7-0.7h-0.7v-3.3h5.4V49.7z
			 M42.2,43.2c-0.3,0.1-0.5,0.3-0.5,0.6V45h-5.4v-1.2c0-0.3-0.2-0.5-0.5-0.6c-4.2-1.4-7-5.2-7-9.5c0-5.5,4.6-10,10.2-10
			s10.2,4.5,10.2,10C49.2,38,46.4,41.8,42.2,43.2z M39,21c0.4,0,0.7-0.3,0.7-0.7v-2.7c0-0.4-0.3-0.7-0.7-0.7s-0.7,0.3-0.7,0.7v2.7
			C38.3,20.7,38.6,21,39,21z M55.3,33h-2.7c-0.4,0-0.7,0.3-0.7,0.7c0,0.4,0.3,0.7,0.7,0.7h2.7c0.4,0,0.7-0.3,0.7-0.7
			C56,33.3,55.7,33,55.3,33z M25.4,33h-2.7c-0.4,0-0.7,0.3-0.7,0.7c0,0.4,0.3,0.7,0.7,0.7h2.7c0.4,0,0.7-0.3,0.7-0.7
			C26.1,33.3,25.8,33,25.4,33z M50.1,21.9l-1.9,1.9c-0.3,0.3-0.3,0.7,0,0.9c0.1,0.1,0.3,0.2,0.5,0.2s0.3-0.1,0.5-0.2l1.9-1.9
			c0.3-0.3,0.3-0.7,0-0.9C50.8,21.6,50.3,21.6,50.1,21.9z M28.9,42.6L27,44.5c-0.3,0.3-0.3,0.7,0,0.9c0.1,0.1,0.3,0.2,0.5,0.2
			s0.3-0.1,0.5-0.2l1.9-1.9c0.3-0.3,0.3-0.7,0-0.9C29.6,42.4,29.2,42.4,28.9,42.6z M49.1,42.6c-0.3-0.3-0.7-0.3-1,0
			c-0.3,0.3-0.3,0.7,0,0.9l1.9,1.9c0.1,0.1,0.3,0.2,0.5,0.2s0.3-0.1,0.5-0.2c0.3-0.3,0.3-0.7,0-0.9L49.1,42.6z M28.9,24.7
			c0.1,0.1,0.3,0.2,0.5,0.2s0.3-0.1,0.5-0.2c0.3-0.3,0.3-0.7,0-0.9l-1.9-1.9c-0.3-0.3-0.7-0.3-1,0c-0.3,0.3-0.3,0.7,0,0.9L28.9,24.7
			z M39,25.7c-4.5,0-8.2,3.6-8.2,8c0,0.4,0.3,0.7,0.7,0.7s0.7-0.3,0.7-0.7c0-3.7,3.1-6.7,6.8-6.7c0.4,0,0.7-0.3,0.7-0.7
			S39.4,25.7,39,25.7z"/>
	</g>
</g>
<linearGradient id="SVGID_1_" gradientUnits="userSpaceOnUse" x1="58.4013" y1="69.7161" x2="19.449" y2="2.2488">
	<stop  offset="0" style="stop-color:#FC5C7D"/>
	<stop  offset="1" style="stop-color:#6A82FB"/>
</linearGradient>
<path class="st1" d="M28.3,72c-6.8,0-11.9-3-15.2-9C9.8,57,6.3,51,2.8,45.2c-3.6-6-3.7-12.1-0.1-18.1c3.5-5.9,6.9-11.9,10.2-17.8
	c3.4-6.2,8.6-9.2,15.6-9.1C35.3,0.2,42.2,0.2,49,0c7-0.1,12.3,2.9,15.7,9c3.3,5.9,6.8,11.9,10.3,17.8c3.6,6,3.7,12.1,0.1,18.1
	c-3.5,5.8-6.9,11.8-10.2,17.8c-3.4,6.2-8.6,9.2-15.6,9.1c-6.8-0.1-13.7-0.1-20.5,0.1C28.7,72,28.5,72,28.3,72z M28.2,1.1
	c-6.5,0-11.3,2.9-14.5,8.6c-3.3,6-6.7,12-10.2,17.9C0.2,33.3,0.2,39,3.6,44.7c3.5,5.8,7,11.8,10.4,17.8c3.2,5.8,8.2,8.7,14.8,8.5
	c6.8-0.1,13.7-0.2,20.5-0.1c0.1,0,0.2,0,0.3,0c6.5,0,11.3-2.9,14.5-8.6c3.3-6,6.7-12,10.2-17.9c3.4-5.7,3.4-11.5-0.1-17.1
	c-3.5-5.8-7-11.8-10.4-17.8C60.7,3.7,55.7,0.8,49,1c-6.8,0.1-13.7,0.2-20.5,0.1C28.4,1.1,28.3,1.1,28.2,1.1z"/>
</svg>
