<?xml version="1.0" encoding="utf-8"?>
<!-- Generator: Adobe Illustrator 21.1.0, SVG Export Plug-In . SVG Version: 6.00 Build 0)  -->
<svg version="1.1" id="Layer_1" xmlns="http://www.w3.org/2000/svg" xmlns:xlink="http://www.w3.org/1999/xlink" x="0px" y="0px"
	 viewBox="0 0 78 72" style="enable-background:new 0 0 78 72;" xml:space="preserve">
<style type="text/css">
	.st0{fill:url(#SVGID_1_);}
	.st1{fill-rule:evenodd;clip-rule:evenodd;fill:#FC5C7D;}
</style>
<linearGradient id="SVGID_1_" gradientUnits="userSpaceOnUse" x1="58.4013" y1="69.7161" x2="19.449" y2="2.2488">
	<stop  offset="0" style="stop-color:#FC5C7D"/>
	<stop  offset="1" style="stop-color:#6A82FB"/>
</linearGradient>
<path class="st0" d="M28.3,72c-6.8,0-11.9-3-15.2-9C9.8,57,6.3,51,2.8,45.2c-3.6-6-3.7-12.1-0.1-18.1c3.5-5.9,6.9-11.9,10.2-17.8
	c3.4-6.2,8.6-9.2,15.6-9.1C35.3,0.2,42.2,0.2,49,0c7-0.1,12.3,2.9,15.7,9c3.3,5.9,6.8,11.9,10.3,17.8c3.6,6,3.7,12.1,0.1,18.1
	c-3.5,5.8-6.9,11.8-10.2,17.8c-3.4,6.2-8.6,9.2-15.6,9.1c-6.8-0.1-13.7-0.1-20.5,0.1C28.7,72,28.5,72,28.3,72z M28.2,1.1
	c-6.5,0-11.3,2.9-14.5,8.6c-3.3,6-6.7,12-10.2,17.9C0.2,33.3,0.2,39,3.6,44.7c3.5,5.8,7,11.8,10.4,17.8c3.2,5.8,8.2,8.7,14.8,8.5
	c6.8-0.1,13.7-0.2,20.5-0.1c0.1,0,0.2,0,0.3,0c6.5,0,11.3-2.9,14.5-8.6c3.3-6,6.7-12,10.2-17.9c3.4-5.7,3.4-11.5-0.1-17.1
	c-3.5-5.8-7-11.8-10.4-17.8C60.7,3.7,55.7,0.8,49,1c-6.8,0.1-13.7,0.2-20.5,0.1C28.4,1.1,28.3,1.1,28.2,1.1z"/>
<g id="Forma_1_2_">
	<g>
		<path class="st1" d="M55,17c-2.2,0-4,1.8-4,4c0,0.7,0.2,1.4,0.5,1.9l-6.6,6.6c-0.9-0.7-2.1-1.1-3.3-1.1c-1.2,0-2.4,0.4-3.3,1.1
			l-5.2-5.2c0.2-0.4,0.4-0.9,0.4-1.4c0-1.5-1.2-2.7-2.7-2.7c-1.5,0-2.7,1.2-2.7,2.7c0,1.5,1.2,2.7,2.7,2.7c0.5,0,1-0.1,1.4-0.4
			l5.2,5.2c-0.7,0.9-1.1,2.1-1.1,3.3c0,1.2,0.4,2.4,1.1,3.3l-8.5,8.5C28,45,27.1,44.6,26,44.6c-2.2,0-4,1.8-4,4s1.8,4,4,4
			c2.2,0,4-1.8,4-4c0-0.7-0.2-1.4-0.5-1.9l8.6-8.6c0.7,0.6,1.6,1,2.6,1.1V46c-1.9,0.3-3.4,2-3.4,4c0,2.2,1.8,4,4,4s4-1.8,4-4
			c0-2-1.5-3.7-3.4-4v-6.8c1-0.1,1.9-0.5,2.6-1.1l5.2,5.2c-0.2,0.4-0.4,0.9-0.4,1.4c0,1.5,1.2,2.7,2.7,2.7c1.5,0,2.7-1.2,2.7-2.7
			c0-1.5-1.2-2.7-2.7-2.7c-0.5,0-1,0.1-1.4,0.4l-5.2-5.2c0.7-0.9,1.1-2.1,1.1-3.3c0-1.2-0.4-2.4-1.1-3.3l6.5-6.5
			c0.7,0.7,1.7,1.1,2.7,1.1c2.2,0,4-1.8,4-4C59,18.8,57.2,17,55,17z M30.7,24.4c-0.7,0-1.3-0.6-1.3-1.3c0-0.7,0.6-1.3,1.3-1.3
			c0.7,0,1.3,0.6,1.3,1.3C32.1,23.8,31.5,24.4,30.7,24.4z M26,51.3c-1.5,0-2.7-1.2-2.7-2.7s1.2-2.7,2.7-2.7c1.5,0,2.7,1.2,2.7,2.7
			S27.5,51.3,26,51.3z M52.3,43.2c0.7,0,1.3,0.6,1.3,1.3s-0.6,1.3-1.3,1.3c-0.7,0-1.3-0.6-1.3-1.3S51.5,43.2,52.3,43.2z M44.2,50
			c0,1.5-1.2,2.7-2.7,2.7c-1.5,0-2.7-1.2-2.7-2.7s1.2-2.7,2.7-2.7C43,47.3,44.2,48.5,44.2,50z M41.5,37.9c-2.2,0-4-1.8-4-4
			c0-2.2,1.8-4,4-4s4,1.8,4,4C45.5,36,43.7,37.9,41.5,37.9z M55,23.7c-1.5,0-2.7-1.2-2.7-2.7c0-1.5,1.2-2.7,2.7-2.7
			c1.5,0,2.7,1.2,2.7,2.7C57.7,22.5,56.4,23.7,55,23.7z"/>
	</g>
</g>
</svg>
