<?xml version="1.0" encoding="utf-8"?>
<!-- Generator: Adobe Illustrator 21.1.0, SVG Export Plug-In . SVG Version: 6.00 Build 0)  -->
<svg version="1.1" id="Layer_1" xmlns="http://www.w3.org/2000/svg" xmlns:xlink="http://www.w3.org/1999/xlink" x="0px" y="0px"
	 viewBox="0 0 78 72" style="enable-background:new 0 0 78 72;" xml:space="preserve">
<style type="text/css">
	.st0{fill:#FC5C7D;}
	.st1{fill-rule:evenodd;clip-rule:evenodd;fill:#FC5C7D;}
</style>
<path class="st0" d="M28.3,72c-6.8,0-11.9-3-15.2-9C9.8,57,6.3,51,2.8,45.2c-3.6-6-3.7-12.1-0.1-18.1c3.5-5.9,6.9-11.9,10.2-17.8
	c3.4-6.2,8.6-9.2,15.6-9.1C35.3,0.2,42.2,0.2,49,0c7-0.1,12.3,2.9,15.7,9c3.3,5.9,6.8,11.9,10.3,17.8c3.6,6,3.7,12.1,0.1,18.1
	c-3.5,5.8-6.9,11.8-10.2,17.8c-3.4,6.2-8.6,9.2-15.6,9.1c-6.8-0.1-13.7-0.1-20.5,0.1C28.7,72,28.5,72,28.3,72z M28.2,1.1
	c-6.5,0-11.3,2.9-14.5,8.6c-3.3,6-6.7,12-10.2,17.9C0.2,33.3,0.2,39,3.6,44.7c3.5,5.8,7,11.8,10.4,17.8c3.2,5.8,8.2,8.7,14.8,8.5
	c6.8-0.1,13.7-0.2,20.5-0.1c0.1,0,0.2,0,0.3,0c6.5,0,11.3-2.9,14.5-8.6c3.3-6,6.7-12,10.2-17.9c3.4-5.7,3.4-11.5-0.1-17.1
	c-3.5-5.8-7-11.8-10.4-17.8C60.7,3.7,55.7,0.8,49,1c-6.8,0.1-13.7,0.2-20.5,0.1C28.4,1.1,28.3,1.1,28.2,1.1z"/>
<g id="Forma_1_2_">
	<g>
		<path class="st1" d="M60,29.7C60,29.6,60,29.6,60,29.7c0-0.1,0-0.1,0-0.2c0,0,0,0,0,0c0,0,0,0,0,0c0,0,0,0,0,0l-6.8-10.9
			c0,0-0.1-0.1-0.1-0.1c0,0,0,0,0,0c-0.1-0.1-0.1-0.1-0.2-0.1c0,0,0,0,0,0c0,0,0,0,0,0c-0.1,0-0.1,0-0.2,0h-26c-0.1,0-0.1,0-0.2,0
			c0,0,0,0,0,0c0,0,0,0,0,0c-0.1,0-0.1,0.1-0.2,0.1c0,0,0,0,0,0c0,0-0.1,0.1-0.1,0.1l-6.8,10.9c0,0,0,0,0,0c0,0,0,0,0,0c0,0,0,0,0,0
			c0,0,0,0.1,0,0.1c0,0,0,0.1,0,0.1c0,0,0,0.1,0,0.1c0,0,0,0.1,0,0.1c0,0,0,0.1,0,0.1c0,0,0,0.1,0,0.1c0,0,0,0,0,0c0,0,0,0,0,0.1
			c0,0,0,0,0,0L39,54.7c0,0,0,0,0,0l0,0c0,0,0,0,0,0c0.1,0.1,0.1,0.1,0.2,0.2c0,0,0,0,0.1,0c0.1,0,0.2,0.1,0.3,0.1
			c0.1,0,0.2,0,0.2,0c0,0,0,0,0,0c0,0,0.1,0,0.1-0.1c0.1,0,0.1-0.1,0.1-0.1c0,0,0,0,0,0l19.8-24.6c0,0,0,0,0,0c0,0,0,0,0-0.1
			c0,0,0,0,0,0c0,0,0-0.1,0-0.1c0,0,0-0.1,0-0.1C60,29.8,60,29.8,60,29.7C60,29.7,60,29.7,60,29.7z M51.5,19.5l-3.3,8.9l-7.2-8.9
			H51.5z M46.9,29H32.1l7.4-9.2L46.9,29z M38.1,19.5l-7.3,9l-3.3-9H38.1z M26.4,20.3l3.2,8.7h-8.6L26.4,20.3z M21.1,30.4H30
			l7.4,20.3L21.1,30.4z M39.4,52l-7.9-21.6h15.9L39.4,52z M41.1,51.2l7.7-20.8h9L41.1,51.2z M49.4,29l3.2-8.7l5.4,8.7H49.4z"/>
	</g>
</g>
</svg>
