<?xml version="1.0" encoding="utf-8"?>
<!-- Generator: Adobe Illustrator 21.1.0, SVG Export Plug-In . SVG Version: 6.00 Build 0)  -->
<svg version="1.1" id="Layer_1" xmlns="http://www.w3.org/2000/svg" xmlns:xlink="http://www.w3.org/1999/xlink" x="0px" y="0px"
	 viewBox="0 0 78 72" style="enable-background:new 0 0 78 72;" xml:space="preserve">
<style type="text/css">
	.st0{fill:url(#SVGID_1_);}
	.st1{fill-rule:evenodd;clip-rule:evenodd;fill:#6A82FB;}
</style>
<linearGradient id="SVGID_1_" gradientUnits="userSpaceOnUse" x1="58.4013" y1="69.7161" x2="19.449" y2="2.2488">
	<stop  offset="0" style="stop-color:#FC5C7D"/>
	<stop  offset="1" style="stop-color:#6A82FB"/>
</linearGradient>
<path class="st0" d="M28.3,72c-6.8,0-11.9-3-15.2-9C9.8,57,6.3,51,2.8,45.2c-3.6-6-3.7-12.1-0.1-18.1c3.5-5.9,6.9-11.9,10.2-17.8
	c3.4-6.2,8.6-9.2,15.6-9.1C35.3,0.2,42.2,0.2,49,0c7-0.1,12.3,2.9,15.7,9c3.3,5.9,6.8,11.9,10.3,17.8c3.6,6,3.7,12.1,0.1,18.1
	c-3.5,5.8-6.9,11.8-10.2,17.8c-3.4,6.2-8.6,9.2-15.6,9.1c-6.8-0.1-13.7-0.1-20.5,0.1C28.7,72,28.5,72,28.3,72z M28.2,1.1
	c-6.5,0-11.3,2.9-14.5,8.6c-3.3,6-6.7,12-10.2,17.9C0.2,33.3,0.2,39,3.6,44.7c3.5,5.8,7,11.8,10.4,17.8c3.2,5.8,8.2,8.7,14.8,8.5
	c6.8-0.1,13.7-0.2,20.5-0.1c0.1,0,0.2,0,0.3,0c6.5,0,11.3-2.9,14.5-8.6c3.3-6,6.7-12,10.2-17.9c3.4-5.7,3.4-11.5-0.1-17.1
	c-3.5-5.8-7-11.8-10.4-17.8C60.7,3.7,55.7,0.8,49,1c-6.8,0.1-13.7,0.2-20.5,0.1C28.4,1.1,28.3,1.1,28.2,1.1z"/>
<g id="Forma_1_2_">
	<g>
		<path class="st1" d="M59,28.3C59,28.2,59,28.2,59,28.3c0-0.1,0-0.1,0-0.2c0,0,0,0,0,0c0,0,0,0,0,0c0,0,0,0,0,0l-6.7-10.7
			c0,0-0.1-0.1-0.1-0.1c0,0,0,0,0,0c-0.1-0.1-0.1-0.1-0.2-0.1c0,0,0,0,0,0c0,0,0,0,0,0c-0.1,0-0.1,0-0.2,0H26.3c-0.1,0-0.1,0-0.2,0
			c0,0,0,0,0,0c0,0,0,0,0,0c-0.1,0-0.1,0.1-0.2,0.1c0,0,0,0,0,0c0,0-0.1,0.1-0.1,0.1L19.1,28c0,0,0,0,0,0c0,0,0,0,0,0c0,0,0,0,0,0
			c0,0,0,0.1,0,0.1c0,0,0,0.1,0,0.1c0,0,0,0.1,0,0.1c0,0,0,0.1,0,0.1c0,0,0,0.1,0,0.1c0,0,0,0.1,0,0.1c0,0,0,0,0,0c0,0,0,0,0,0.1
			c0,0,0,0,0,0l19.3,24c0,0,0,0,0,0l0,0c0,0,0,0,0,0c0.1,0.1,0.1,0.1,0.2,0.2c0,0,0,0,0.1,0c0.1,0,0.2,0.1,0.3,0.1
			c0.1,0,0.2,0,0.2,0c0,0,0,0,0,0c0,0,0.1,0,0.1-0.1c0.1,0,0.1-0.1,0.1-0.1c0,0,0,0,0,0l19.3-24c0,0,0,0,0,0c0,0,0,0,0-0.1
			c0,0,0,0,0,0c0,0,0,0,0-0.1c0,0,0-0.1,0-0.1C59,28.4,59,28.4,59,28.3C59,28.3,59,28.3,59,28.3z M50.7,18.3L47.5,27l-7.1-8.7H50.7z
			 M46.3,27.7H31.7l7.3-8.9L46.3,27.7z M37.6,18.3l-7.1,8.8l-3.2-8.8H37.6z M26.2,19.2l3.1,8.5h-8.4L26.2,19.2z M21.1,29h8.7
			L37,48.8L21.1,29z M38.9,50.1L31.2,29h15.6L38.9,50.1z M40.6,49.3L48.2,29h8.8L40.6,49.3z M48.7,27.7l3.2-8.5l5.3,8.5H48.7z"/>
	</g>
</g>
</svg>
