<?xml version="1.0" encoding="utf-8"?>
<!-- Generator: Adobe Illustrator 21.1.0, SVG Export Plug-In . SVG Version: 6.00 Build 0)  -->
<svg version="1.1" id="Layer_1" xmlns="http://www.w3.org/2000/svg" xmlns:xlink="http://www.w3.org/1999/xlink" x="0px" y="0px"
	 viewBox="0 0 302 306" style="enable-background:new 0 0 302 306;" xml:space="preserve">
<style type="text/css">
	.st0{fill:url(#SVGID_1_);}
</style>
<linearGradient id="SVGID_1_" gradientUnits="userSpaceOnUse" x1="151.5154" y1="306.1481" x2="151.5154" y2="0.8778">
	<stop  offset="0" style="stop-color:#FC5C7D"/>
	<stop  offset="0.128" style="stop-color:#F35E85"/>
	<stop  offset="0.3409" style="stop-color:#D9659B"/>
	<stop  offset="0.6123" style="stop-color:#B070BF"/>
	<stop  offset="0.9288" style="stop-color:#777FF0"/>
	<stop  offset="0.9944" style="stop-color:#6A82FB"/>
</linearGradient>
<path class="st0" d="M161,304.2c-23-5.2-46.1-9.9-69.3-14.1c-23.2-4.2-39.9-16.9-50.2-38.1c-10.3-21.2-21-42.2-32.2-63
	c-11.2-20.8-11.7-41.8-1.5-63.1C18,104.7,27.7,83.2,37,61.5C46.3,39.8,62.4,26.4,85.4,21c23-5.3,45.8-11.1,68.5-17.4
	c22.7-6.3,43.3-2.1,61.8,12.6C234.2,30.9,253,45.2,272,59c19.1,13.9,28.6,32.6,28.7,56.2c0.1,23.6,0.6,47.1,1.7,70.7
	c1,23.6-7.6,42.7-26,57.5c-18.4,14.8-36.5,29.9-54.2,45.4C204.4,304.2,184,309.4,161,304.2z"/>
</svg>
