<?xml version="1.0" encoding="utf-8"?>
<!-- Generator: Adobe Illustrator 15.0.0, SVG Export Plug-In . SVG Version: 6.00 Build 0)  -->
<!DOCTYPE svg PUBLIC "-//W3C//DTD SVG 1.1//EN" "http://www.w3.org/Graphics/SVG/1.1/DTD/svg11.dtd">
<svg version="1.1" id="Layer_1" xmlns="http://www.w3.org/2000/svg" xmlns:xlink="http://www.w3.org/1999/xlink" x="0px" y="0px"
	 width="1443px" height="1453px" viewBox="0 0 1443 1453" enable-background="new 0 0 1443 1453" xml:space="preserve">
<path fill="#8BC34A" d="M1013.445,1338.303c107.061-121.809,217.392-240.582,330.994-356.318
	c113.602-115.737,129-243.316,46.195-382.737c-82.806-139.421-161.711-281.013-236.718-424.776
	C1078.91,30.708,962.288-23.353,804.051,12.29c-158.236,35.642-317.335,66.907-477.293,93.792
	C166.799,132.968,79.324,227.137,64.333,388.585C49.342,550.034,29.92,710.949,6.067,871.328
	c-23.854,160.381,38.706,272.641,187.679,336.778c148.972,64.14,296.066,132.325,441.283,204.56
	C780.246,1484.899,906.384,1460.111,1013.445,1338.303z"/>
</svg>
