<?xml version="1.0" encoding="utf-8"?>
<!-- Generator: Adobe Illustrator 21.1.0, SVG Export Plug-In . SVG Version: 6.00 Build 0)  -->
<svg version="1.1" id="Layer_1" xmlns="http://www.w3.org/2000/svg" xmlns:xlink="http://www.w3.org/1999/xlink" x="0px" y="0px"
	 viewBox="0 0 78 72" style="enable-background:new 0 0 78 72;" xml:space="preserve">
<style type="text/css">
	.st0{fill:url(#SVGID_1_);}
	.st1{fill-rule:evenodd;clip-rule:evenodd;fill:#6A82FB;}
</style>
<linearGradient id="SVGID_1_" gradientUnits="userSpaceOnUse" x1="58.4013" y1="69.7161" x2="19.449" y2="2.2488">
	<stop  offset="0" style="stop-color:#FC5C7D"/>
	<stop  offset="1" style="stop-color:#6A82FB"/>
</linearGradient>
<path class="st0" d="M28.3,72c-6.8,0-11.9-3-15.2-9C9.8,57,6.3,51,2.8,45.2c-3.6-6-3.7-12.1-0.1-18.1c3.5-5.9,6.9-11.9,10.2-17.8
	c3.4-6.2,8.6-9.2,15.6-9.1C35.3,0.2,42.2,0.2,49,0c7-0.1,12.3,2.9,15.7,9c3.3,5.9,6.8,11.9,10.3,17.8c3.6,6,3.7,12.1,0.1,18.1
	c-3.5,5.8-6.9,11.8-10.2,17.8c-3.4,6.2-8.6,9.2-15.6,9.1c-6.8-0.1-13.7-0.1-20.5,0.1C28.7,72,28.5,72,28.3,72z M28.2,1.1
	c-6.5,0-11.3,2.9-14.5,8.6c-3.3,6-6.7,12-10.2,17.9C0.2,33.3,0.2,39,3.6,44.7c3.5,5.8,7,11.8,10.4,17.8c3.2,5.8,8.2,8.7,14.8,8.5
	c6.8-0.1,13.7-0.2,20.5-0.1c0.1,0,0.2,0,0.3,0c6.5,0,11.3-2.9,14.5-8.6c3.3-6,6.7-12,10.2-17.9c3.4-5.7,3.4-11.5-0.1-17.1
	c-3.5-5.8-7-11.8-10.4-17.8C60.7,3.7,55.7,0.8,49,1c-6.8,0.1-13.7,0.2-20.5,0.1C28.4,1.1,28.3,1.1,28.2,1.1z"/>
<g id="Forma_1">
	<g>
		<path class="st1" d="M41.3,30.6C41.3,30.6,41.3,30.6,41.3,30.6L41.3,30.6L22,50.3l2.6,2.7l25.2-25.7l-2.6-2.7L41.3,30.6z
			 M24.6,51.2l-0.9-0.9l18-18.3l0.9,0.9L24.6,51.2z M43.5,32l-0.9-0.9l4.5-4.6l0.9,0.9L43.5,32z M47.2,22.7c0.3,0,0.6-0.3,0.6-0.6
			v-4.5c0-0.4-0.3-0.6-0.6-0.6s-0.6,0.3-0.6,0.6v4.5C46.6,22.4,46.9,22.7,47.2,22.7z M47.2,31.6c-0.3,0-0.6,0.3-0.6,0.6v4.5
			c0,0.4,0.3,0.6,0.6,0.6s0.6-0.3,0.6-0.6v-4.5C47.8,31.9,47.5,31.6,47.2,31.6z M56.6,26.5h-4.4c-0.3,0-0.6,0.3-0.6,0.6
			s0.3,0.6,0.6,0.6h4.4c0.3,0,0.6-0.3,0.6-0.6S56.9,26.5,56.6,26.5z M37.8,27.8h4.4c0.3,0,0.6-0.3,0.6-0.6s-0.3-0.6-0.6-0.6h-4.4
			c-0.3,0-0.6,0.3-0.6,0.6S37.5,27.8,37.8,27.8z M50.9,24c0.2,0,0.3-0.1,0.4-0.2l3.1-3.1c0.2-0.2,0.2-0.7,0-0.9s-0.6-0.2-0.9,0
			l-3.1,3.1c-0.2,0.2-0.2,0.7,0,0.9C50.6,23.9,50.8,24,50.9,24z M51.4,30.5c-0.2-0.2-0.6-0.2-0.9,0s-0.2,0.7,0,0.9l3.1,3.1
			c0.1,0.1,0.3,0.2,0.4,0.2s0.3-0.1,0.4-0.2c0.2-0.2,0.2-0.7,0-0.9L51.4,30.5z M43,23.8c0.1,0.1,0.3,0.2,0.4,0.2
			c0.2,0,0.3-0.1,0.4-0.2c0.2-0.2,0.2-0.7,0-0.9l-3.1-3.1c-0.2-0.2-0.6-0.2-0.9,0s-0.2,0.7,0,0.9L43,23.8z"/>
	</g>
</g>
</svg>
