<?xml version="1.0" encoding="utf-8"?>
<!-- Generator: Adobe Illustrator 21.1.0, SVG Export Plug-In . SVG Version: 6.00 Build 0)  -->
<svg version="1.1" id="Layer_1" xmlns="http://www.w3.org/2000/svg" xmlns:xlink="http://www.w3.org/1999/xlink" x="0px" y="0px"
	 viewBox="0 0 78 72" style="enable-background:new 0 0 78 72;" xml:space="preserve">
<style type="text/css">
	.st0{fill:#6A82FB;}
	.st1{fill-rule:evenodd;clip-rule:evenodd;fill:#6A82FB;}
</style>
<path class="st0" d="M28.3,72c-6.8,0-11.9-3-15.2-9C9.8,57,6.3,51,2.8,45.2c-3.6-6-3.7-12.1-0.1-18.1c3.5-5.9,6.9-11.9,10.2-17.8
	c3.4-6.2,8.6-9.2,15.6-9.1C35.3,0.2,42.2,0.2,49,0c7-0.1,12.3,2.9,15.7,9c3.3,5.9,6.8,11.9,10.3,17.8c3.6,6,3.7,12.1,0.1,18.1
	c-3.5,5.8-6.9,11.8-10.2,17.8c-3.4,6.2-8.6,9.2-15.6,9.1c-6.8-0.1-13.7-0.1-20.5,0.1C28.7,72,28.5,72,28.3,72z M28.2,1.1
	c-6.5,0-11.3,2.9-14.5,8.6c-3.3,6-6.7,12-10.2,17.9C0.2,33.3,0.2,39,3.6,44.7c3.5,5.8,7,11.8,10.4,17.8c3.2,5.8,8.2,8.7,14.8,8.5
	c6.8-0.1,13.7-0.2,20.5-0.1c0.1,0,0.2,0,0.3,0c6.5,0,11.3-2.9,14.5-8.6c3.3-6,6.7-12,10.2-17.9c3.4-5.7,3.4-11.5-0.1-17.1
	c-3.5-5.8-7-11.8-10.4-17.8C60.7,3.7,55.7,0.8,49,1c-6.8,0.1-13.7,0.2-20.5,0.1C28.4,1.1,28.3,1.1,28.2,1.1z"/>
<g id="Forma_1">
	<g>
		<path class="st1" d="M41.7,32.1C41.7,32.1,41.7,32.1,41.7,32.1L41.7,32.1L21.8,52.2l2.7,2.8l25.9-26.2L47.7,26L41.7,32.1z
			 M24.5,53.2l-0.9-0.9l18.5-18.7l0.9,0.9L24.5,53.2z M43.9,33.5L43,32.6l4.7-4.7l0.9,0.9L43.9,33.5z M47.7,24.1
			c0.4,0,0.6-0.3,0.6-0.7v-4.6c0-0.4-0.3-0.7-0.6-0.7c-0.4,0-0.6,0.3-0.6,0.7v4.6C47.1,23.8,47.4,24.1,47.7,24.1z M47.7,33.2
			c-0.4,0-0.6,0.3-0.6,0.7v4.6c0,0.4,0.3,0.7,0.6,0.7c0.4,0,0.6-0.3,0.6-0.7v-4.6C48.4,33.4,48.1,33.2,47.7,33.2z M57.4,28h-4.5
			c-0.4,0-0.6,0.3-0.6,0.7c0,0.4,0.3,0.7,0.6,0.7h4.5c0.4,0,0.6-0.3,0.6-0.7C58,28.2,57.7,28,57.4,28z M38.1,29.3h4.5
			c0.4,0,0.6-0.3,0.6-0.7c0-0.4-0.3-0.7-0.6-0.7h-4.5c-0.4,0-0.6,0.3-0.6,0.7C37.5,29,37.8,29.3,38.1,29.3z M51.6,25.4
			c0.2,0,0.3-0.1,0.5-0.2l3.2-3.2c0.3-0.3,0.3-0.7,0-0.9c-0.3-0.3-0.7-0.3-0.9,0l-3.2,3.2c-0.3,0.3-0.3,0.7,0,0.9
			C51.3,25.3,51.4,25.4,51.6,25.4z M52,32c-0.3-0.3-0.7-0.3-0.9,0c-0.3,0.3-0.3,0.7,0,0.9l3.2,3.2c0.1,0.1,0.3,0.2,0.5,0.2
			c0.2,0,0.3-0.1,0.5-0.2c0.3-0.3,0.3-0.7,0-0.9L52,32z M43.4,25.2c0.1,0.1,0.3,0.2,0.5,0.2s0.3-0.1,0.5-0.2c0.3-0.3,0.3-0.7,0-0.9
			L41.2,21c-0.3-0.3-0.7-0.3-0.9,0s-0.3,0.7,0,0.9L43.4,25.2z"/>
	</g>
</g>
</svg>
