<?xml version="1.0" encoding="utf-8"?>
<!-- Generator: Adobe Illustrator 15.0.0, SVG Export Plug-In . SVG Version: 6.00 Build 0)  -->
<!DOCTYPE svg PUBLIC "-//W3C//DTD SVG 1.1//EN" "http://www.w3.org/Graphics/SVG/1.1/DTD/svg11.dtd">
<svg version="1.1" id="Layer_1" xmlns="http://www.w3.org/2000/svg" xmlns:xlink="http://www.w3.org/1999/xlink" x="0px" y="0px"
	 width="1345px" height="1345px" viewBox="0 0 1345 1345" enable-background="new 0 0 1345 1345" xml:space="preserve">
<path fill="#F9A825" d="M1013.561,1234.401c-119.59,27.644-238.08,59.393-355.471,95.246
	c-117.391,35.854-217.954,8.908-301.69-80.837c-83.736-89.744-170.477-176.484-260.223-260.219
	C6.431,904.856-20.515,804.294,15.339,686.905c35.854-117.39,67.604-235.879,95.249-355.468
	c27.645-119.589,101.262-193.205,220.852-220.85C451.03,82.943,569.52,51.194,686.91,15.341
	c117.391-35.854,217.954-8.908,301.69,80.836c83.736,89.745,170.478,176.485,260.223,260.221
	c89.746,83.735,116.692,184.297,80.838,301.687s-67.604,235.878-95.248,355.467
	C1206.768,1133.14,1133.15,1206.756,1013.561,1234.401z"/>
</svg>
