<?xml version="1.0" encoding="utf-8"?>
<!-- Generator: Adobe Illustrator 21.1.0, SVG Export Plug-In . SVG Version: 6.00 Build 0)  -->
<svg version="1.1" id="Layer_1" xmlns="http://www.w3.org/2000/svg" xmlns:xlink="http://www.w3.org/1999/xlink" x="0px" y="0px"
	 viewBox="0 0 1945 1006" style="enable-background:new 0 0 1945 1006;" xml:space="preserve">
<style type="text/css">
	.st0{fill:#FFF4D9;}
	.st1{fill:#FFB300;}
	.st2{fill-rule:evenodd;clip-rule:evenodd;fill:none;stroke:#FFC233;stroke-width:30;stroke-miterlimit:10;}
	.st3{fill-rule:evenodd;clip-rule:evenodd;fill:#FFC233;}
</style>
<path class="st0" d="M1001.4-685.7c246,295.6,495.4,588.4,748.1,878.2c252.8,289.9,189.6,467.4-189.4,532.6
	C1181.2,790.4,803,860,425.6,933.9C48.2,1007.9-74,864.5,59,503.6c133-360.8,261.8-723.2,386.5-1087S755.5-981.3,1001.4-685.7z"/>
<path class="st1" d="M867.5-739.3c289.7,252.9,582.3,502.5,877.8,748.6c295.5,246.2,261.3,431.5-102.6,555.9
	S916.4,818.3,555.5,951.2C194.5,1084,51.2,961.7,125.3,584.3c74.2-377.4,144-755.5,209.4-1134.5
	C400.2-929.2,577.8-992.2,867.5-739.3z"/>
<path class="st2" d="M1020,330.8l-113.3,67.7L839,285.2l113.3-67.7L1020,330.8z"/>
<path class="st3" d="M1408,198.8l-74.8-28.4l28.4-74.8l74.8,28.4L1408,198.8z"/>
</svg>
