<svg id="Layer_1" xmlns="http://www.w3.org/2000/svg" xmlns:xlink="http://www.w3.org/1999/xlink" viewBox="0 0 48.7 43"><style>.st0{clip-path:url(#SVGID_2_);fill:#fff}</style><defs><path id="SVGID_1_" d="M0 0h48.7v43H0z"/></defs><clipPath id="SVGID_2_"><use xlink:href="#SVGID_1_" overflow="visible"/></clipPath><path class="st0" d="M47.3 8.6H34.4V5.8c0-3.2-2.6-5.8-5.8-5.8h-8.5c-3.2 0-5.8 2.6-5.8 5.8v2.8H1.4C.6 8.6 0 9.2 0 10v26c0 3.9 3.2 7 7 7h34.7c3.9 0 7-3.2 7-7V10c0-.8-.6-1.4-1.4-1.4M27.6 27.2c0 1.8-1.5 3.2-3.2 3.2-1.8 0-3.2-1.5-3.2-3.2V24h6.5v3.2zm1.4-6.1h-9.3c-.8 0-1.4.6-1.4 1.4v2.6C10 23.4 3.7 18 2.9 11.5h42.8c-.8 6.5-7 11.9-15.3 13.7v-2.6c.1-.8-.6-1.5-1.4-1.5M17.2 5.8c0-1.6 1.3-2.9 2.9-2.9h8.5c1.6 0 2.9 1.3 2.9 2.9v2.8H17.2V5.8zM45.9 36c0 2.3-1.9 4.2-4.2 4.2H7c-2.3 0-4.2-1.9-4.2-4.2V18.8C4 20.5 5.5 22 7.3 23.3c3.1 2.3 6.9 4 11 4.8.4 3 3 5.2 6 5.2 3.1 0 5.6-2.3 6-5.2 4.1-.8 7.9-2.4 11-4.8 1.8-1.3 3.3-2.9 4.4-4.5V36z"/></svg>