<svg id="Capa_1" xmlns="http://www.w3.org/2000/svg" viewBox="0 0 512 480"><style>.st0{fill:#fff}</style><path class="st0" d="M421 167.8V165C421 74 347 0 256 0S91 74 91 165v2.8C37 195.1 0 250.8 0 315c0 91 74.5 165 166 165 33.2 0 64.1-9.9 90-26.8 25.9 16.9 56.8 26.8 90 26.8 91.5 0 166-74 166-165 0-64.2-37.1-119.9-91-147.2zM256 415.5c-25.5-22.9-42.3-55.4-44.7-91.7 14.2 4 29.2 6.2 44.7 6.2s30.5-2.1 44.7-6.2c-2.4 36.4-19.2 68.8-44.7 91.7zm0-115.5c-15.1 0-29.6-2.5-43.2-7.1 5.1-30.9 20.8-58.4 43.2-78.4 22.4 20.1 38.1 47.5 43.2 78.4-13.6 4.6-28.1 7.1-43.2 7.1zm-71.2-20.3c-32.4-20.2-55.6-53.6-62-92.7 13.6-4.5 28.1-7 43.2-7 23.6 0 45.8 6.1 65.1 16.7-22.8 22.2-39.2 50.8-46.3 83zm96.1-83C300.2 186 322.4 180 346 180c15.1 0 29.6 2.5 43.2 7-6.4 39.1-29.7 72.5-62 92.7-7.1-32.2-23.5-60.8-46.3-83zM256 30c71.4 0 130.1 55.8 134.7 126.1-14.2-4-29.2-6.1-44.7-6.1-33.2 0-64.1 9.9-90 26.8-25.9-16.9-56.8-26.8-90-26.8-15.5 0-30.5 2.1-44.7 6.1C125.9 85.8 184.6 30 256 30zm-90 420c-75 0-136-60.6-136-135 0-48.5 25.9-91.2 64.8-114.9 10.6 48.9 42.9 89.7 86.3 111.9v3c0 46.3 19.2 88.3 50.1 118.3-19.4 10.6-41.6 16.7-65.2 16.7zm180 0c-23.6 0-45.8-6.1-65.1-16.7 30.9-30 50.1-71.9 50.1-118.3v-3c43.4-22.2 75.7-63.1 86.3-111.9C456.1 223.8 482 266.5 482 315c0 74.4-61 135-136 135z"/></svg>