<svg id="Layer_1" xmlns="http://www.w3.org/2000/svg" xmlns:xlink="http://www.w3.org/1999/xlink" viewBox="0 0 518 518"><style>.st0,.st1{clip-path:url(#SVGID_2_);fill:#fff}.st1{fill:none;stroke:#fff;stroke-width:6;stroke-miterlimit:10}</style><defs><path id="SVGID_1_" d="M0 0h518v518H0z"/></defs><clipPath id="SVGID_2_"><use xlink:href="#SVGID_1_" overflow="visible"/></clipPath><path class="st0" d="M256.7 515c-2.8 0-5.5-1.1-7.6-3.1-2.5-2.5-3.6-6.1-2.9-9.6l15.1-75.4c.4-2.1 1.4-4 2.9-5.5l165.9-165.9c12.5-12.5 32.8-12.5 45.2 0l30.2 30.2c12.5 12.5 12.5 32.8 0 45.2L339.7 496.8c-1.5 1.5-3.4 2.5-5.5 2.9l-75.4 15.1c-.7.1-1.4.2-2.1.2m25-80.8l-11.3 56.6 56.6-11.3 163.6-163.6c4.2-4.2 4.2-10.9 0-15.1l-30.2-30.2c-4.2-4.2-10.9-4.2-15.1 0L281.7 434.2zm50.5 55.1h.2-.2z"/><path class="st1" d="M256.7 515c-2.8 0-5.5-1.1-7.6-3.1-2.5-2.5-3.6-6.1-2.9-9.6l15.1-75.4c.4-2.1 1.4-4 2.9-5.5l165.9-165.9c12.5-12.5 32.8-12.5 45.2 0l30.2 30.2c12.5 12.5 12.5 32.8 0 45.2L339.7 496.8c-1.5 1.5-3.4 2.5-5.5 2.9l-75.4 15.1c-.7.1-1.4.2-2.1.2zm25-80.8l-11.3 56.6 56.6-11.3 163.6-163.6c4.2-4.2 4.2-10.9 0-15.1l-30.2-30.2c-4.2-4.2-10.9-4.2-15.1 0L281.7 434.2zm50.5 55.1h.2-.2z"/><path class="st0" d="M205.7 451H56.3C26.9 451 3 427.1 3 397.7V120.3C3 90.9 26.9 67 56.3 67H99c5.9 0 10.7 4.8 10.7 10.7S104.9 88.3 99 88.3H56.3c-17.6 0-32 14.4-32 32v277.3c0 17.6 14.4 32 32 32h149.3c5.9 0 10.7 4.8 10.7 10.7 0 5.9-4.7 10.7-10.6 10.7"/><path class="st1" d="M205.7 451H56.3C26.9 451 3 427.1 3 397.7V120.3C3 90.9 26.9 67 56.3 67H99c5.9 0 10.7 4.8 10.7 10.7S104.9 88.3 99 88.3H56.3c-17.6 0-32 14.4-32 32v277.3c0 17.6 14.4 32 32 32h149.3c5.9 0 10.7 4.8 10.7 10.7 0 5.9-4.7 10.7-10.6 10.7z"/><path class="st0" d="M355 259c-5.9 0-10.7-4.8-10.7-10.7v-128c0-17.6-14.4-32-32-32h-42.7c-5.9 0-10.7-4.8-10.7-10.7 0-5.9 4.8-10.7 10.7-10.7h42.7c29.4 0 53.3 23.9 53.3 53.3v128c.1 6-4.7 10.8-10.6 10.8"/><path class="st1" d="M355 259c-5.9 0-10.7-4.8-10.7-10.7v-128c0-17.6-14.4-32-32-32h-42.7c-5.9 0-10.7-4.8-10.7-10.7 0-5.9 4.8-10.7 10.7-10.7h42.7c29.4 0 53.3 23.9 53.3 53.3v128c.1 6-4.7 10.8-10.6 10.8z"/><path class="st0" d="M248.3 131h-128c-17.6 0-32-14.4-32-32V56.3c0-5.9 4.8-10.7 10.7-10.7h33.1C137 21.3 158.6 3 184.3 3c25.7 0 47.3 18.3 52.3 42.7h33.1c5.9 0 10.7 4.8 10.7 10.7V99c-.1 17.6-14.4 32-32.1 32M109.7 67v32c0 5.9 4.8 10.7 10.7 10.7h128c5.9 0 10.7-4.8 10.7-10.7V67h-32c-5.9 0-10.7-4.8-10.7-10.7 0-17.6-14.4-32-32-32s-32 14.4-32 32c0 5.9-4.8 10.7-10.7 10.7h-32z"/><path class="st1" d="M248.3 131h-128c-17.6 0-32-14.4-32-32V56.3c0-5.9 4.8-10.7 10.7-10.7h33.1C137 21.3 158.6 3 184.3 3c25.7 0 47.3 18.3 52.3 42.7h33.1c5.9 0 10.7 4.8 10.7 10.7V99c-.1 17.6-14.4 32-32.1 32zM109.7 67v32c0 5.9 4.8 10.7 10.7 10.7h128c5.9 0 10.7-4.8 10.7-10.7V67h-32c-5.9 0-10.7-4.8-10.7-10.7 0-17.6-14.4-32-32-32s-32 14.4-32 32c0 5.9-4.8 10.7-10.7 10.7h-32z"/><path class="st0" d="M291 195H77.7c-5.9 0-10.7-4.8-10.7-10.7s4.8-10.7 10.7-10.7H291c5.9 0 10.7 4.8 10.7 10.7S296.9 195 291 195"/><path class="st1" d="M291 195H77.7c-5.9 0-10.7-4.8-10.7-10.7s4.8-10.7 10.7-10.7H291c5.9 0 10.7 4.8 10.7 10.7S296.9 195 291 195z"/><path class="st0" d="M291 259H77.7c-5.9 0-10.7-4.8-10.7-10.7s4.8-10.7 10.7-10.7H291c5.9 0 10.7 4.8 10.7 10.7S296.9 259 291 259"/><path class="st1" d="M291 259H77.7c-5.9 0-10.7-4.8-10.7-10.7s4.8-10.7 10.7-10.7H291c5.9 0 10.7 4.8 10.7 10.7S296.9 259 291 259z"/><path class="st0" d="M291 323H77.7c-5.9 0-10.7-4.8-10.7-10.7 0-5.9 4.8-10.7 10.7-10.7H291c5.9 0 10.7 4.8 10.7 10.7 0 5.9-4.8 10.7-10.7 10.7"/><path class="st1" d="M291 323H77.7c-5.9 0-10.7-4.8-10.7-10.7 0-5.9 4.8-10.7 10.7-10.7H291c5.9 0 10.7 4.8 10.7 10.7 0 5.9-4.8 10.7-10.7 10.7z"/></svg>