<svg id="Layer_1" xmlns="http://www.w3.org/2000/svg" xmlns:xlink="http://www.w3.org/1999/xlink" viewBox="0 0 512 512"><style>.st0{clip-path:url(#SVGID_2_);fill:#fff}</style><defs><path id="SVGID_1_" d="M0 0h512v512H0z"/></defs><clipPath id="SVGID_2_"><use xlink:href="#SVGID_1_" overflow="visible"/></clipPath><path class="st0" d="M496 192H293.3c-8.8 0-16-7.2-16-16s7.2-16 16-16H496c8.8 0 16 7.2 16 16s-7.2 16-16 16M496 256H293.3c-8.8 0-16-7.2-16-16s7.2-16 16-16H496c8.8 0 16 7.2 16 16s-7.2 16-16 16M496 320H293.3c-8.8 0-16-7.2-16-16s7.2-16 16-16H496c8.8 0 16 7.2 16 16s-7.2 16-16 16M496 384H293.3c-8.8 0-16-7.2-16-16s7.2-16 16-16H496c8.8 0 16 7.2 16 16s-7.2 16-16 16M496 448H293.3c-8.8 0-16-7.2-16-16s7.2-16 16-16H496c8.8 0 16 7.2 16 16s-7.2 16-16 16M197.3 320h-160C16.7 320 0 303.3 0 282.7v-85.3C0 176.7 16.7 160 37.3 160h160c20.6 0 37.3 16.7 37.3 37.3v85.3c.1 20.7-16.7 37.4-37.3 37.4m-160-128c-2.9 0-5.3 2.4-5.3 5.3v85.3c0 2.9 2.4 5.3 5.3 5.3h160c2.9 0 5.3-2.4 5.3-5.3v-85.3c0-2.9-2.4-5.3-5.3-5.3h-160zM197.3 512h-160C16.7 512 0 495.3 0 474.7v-85.3C0 368.7 16.7 352 37.3 352h160c20.6 0 37.3 16.7 37.3 37.3v85.3c.1 20.7-16.7 37.4-37.3 37.4m-160-128c-2.9 0-5.3 2.4-5.3 5.3v85.3c0 2.9 2.4 5.3 5.3 5.3h160c2.9 0 5.3-2.4 5.3-5.3v-85.3c0-2.9-2.4-5.3-5.3-5.3h-160zM496 512H293.3c-8.8 0-16-7.2-16-16s7.2-16 16-16H496c8.8 0 16 7.2 16 16s-7.2 16-16 16M474.7 128H208c-20.6 0-37.3-16.7-37.3-37.3V37.3C170.7 16.7 187.4 0 208 0h266.7C495.3 0 512 16.7 512 37.3v53.3c0 20.7-16.7 37.4-37.3 37.4M208 32c-2.9 0-5.3 2.4-5.3 5.3v53.3c0 2.9 2.4 5.3 5.3 5.3h266.7c2.9 0 5.3-2.4 5.3-5.3V37.3c0-2.9-2.4-5.3-5.3-5.3H208zM64 128C28.7 128 0 99.3 0 64S28.7 0 64 0s64 28.7 64 64-28.7 64-64 64m0-96c-17.6 0-32 14.4-32 32s14.4 32 32 32 32-14.4 32-32-14.4-32-32-32"/></svg>