<svg id="Layer_1" xmlns="http://www.w3.org/2000/svg" xmlns:xlink="http://www.w3.org/1999/xlink" viewBox="0 0 46 46"><style>.st0{clip-path:url(#SVGID_2_);fill:#fff}</style><defs><path id="SVGID_1_" d="M0 0h46v46H0z"/></defs><clipPath id="SVGID_2_"><use xlink:href="#SVGID_1_" overflow="visible"/></clipPath><path class="st0" d="M46 1.1c0-.6-.5-1.1-1.1-1.1h-5.5c-.6 0-1.1.5-1.1 1.1v1.4c0 .1-.1.3-.3.3H26.9c-.1 0-.2-.1-.2-.2C26.1 1 24.6 0 23 0s-3.1 1-3.6 2.6c0 .1-.1.2-.2.2H7.9c-.1 0-.3-.1-.3-.3V1.1C7.7.5 7.2 0 6.6 0H1.1C.5 0 0 .5 0 1.1v5.5c0 .6.5 1.1 1.1 1.1h5.5c.6 0 1.1-.5 1.1-1.1V5.2c0-.1.1-.3.3-.3h5.7c.1 0 .2.1.2.2s0 .2-.1.3c-4.7 3-7.8 8.1-8.1 13.8 0 .1-.1.2-.2.2-1.5.5-2.6 2-2.6 3.6 0 2.1 1.7 3.8 3.8 3.8 2.1 0 3.8-1.7 3.8-3.8 0-1.6-1-3-2.5-3.6-.1 0-.2-.1-.2-.3C8.3 12.6 13 7 19.3 5.4c.1 0 .2 0 .3.1.7 1.3 2 2.1 3.4 2.1s2.8-.8 3.4-2.1c0-.1.1-.1.2-.1h.1c6.3 1.6 11 7.2 11.5 13.7 0 .1-.1.2-.2.3-1.5.6-2.5 2-2.5 3.6 0 2.1 1.7 3.8 3.8 3.8 2.1 0 3.8-1.7 3.8-3.8 0-1.6-1-3.1-2.6-3.6-.1 0-.2-.1-.2-.2-.2-5.7-3.3-10.8-8-13.8-.1-.1-.1-.2-.1-.3 0-.1.1-.2.2-.2h5.7c.1 0 .3.1.3.3v1.4c0 .6.5 1.1 1.1 1.1H45c.6 0 1.1-.5 1.1-1.1V1.1zM5.5 5.2c0 .1-.1.3-.3.3H2.5c-.1 0-.3-.1-.3-.3V2.5c0-.1.1-.3.3-.3h2.7c.1 0 .3.1.3.3v2.7zM8.3 23c0 .9-.7 1.6-1.6 1.6-.9 0-1.7-.7-1.7-1.6 0-.9.7-1.6 1.6-1.6.9 0 1.7.7 1.7 1.6M23 5.5c-.9 0-1.6-.7-1.6-1.6 0-.9.7-1.6 1.6-1.6.9 0 1.6.7 1.6 1.6 0 .8-.7 1.6-1.6 1.6m16.4 15.9c.9 0 1.6.7 1.6 1.6 0 .9-.7 1.6-1.6 1.6-.9 0-1.6-.7-1.6-1.6-.1-.9.7-1.6 1.6-1.6m4.4-16.2c0 .1-.1.3-.3.3h-2.7c-.1 0-.3-.1-.3-.3V2.5c0-.1.1-.3.3-.3h2.7c.1 0 .3.1.3.3v2.7z"/><path class="st0" d="M34.8 27.8L23.9 11.5s0-.1-.1-.1c-.2-.3-.5-.4-.8-.4-.4 0-.7.2-.9.5L11.2 27.8c-.3.4-.2 1 .1 1.4 2.7 2.7 4.5 6.4 5 10.2 0 .1 0 .2-.1.2-.2.2-.4.3-.6.5-1.2 1.3-1.9 2.9-1.9 4.7 0 .6.5 1.1 1.1 1.1h16.4c.6 0 1.1-.5 1.1-1.1 0-1.8-.7-3.4-1.9-4.7-.2-.2-.4-.4-.6-.5-.1-.1-.1-.1-.1-.2.5-3.9 2.3-7.5 5-10.2.4-.3.4-.9.1-1.4m-11.8-1c.9 0 1.6.7 1.6 1.6 0 .9-.7 1.6-1.6 1.6-.9 0-1.6-.7-1.6-1.6 0-.8.7-1.6 1.6-1.6m6.8 16.6v.2c0 .1-.1.1-.2.1H16.4c-.1 0-.2 0-.2-.1s-.1-.2 0-.2c.6-1.8 2.3-3 4.1-3h5.5c1.7.1 3.4 1.3 4 3m2.6-14.9c-2.5 2.8-4.1 6.1-4.7 9.8 0 .1-.1.1-.1.2h-.1-.1c-.5-.1-1.1-.2-1.6-.2h-5.5c-.5 0-1.1.1-1.6.2h-.2c-.1 0-.1-.1-.1-.2-.6-3.6-2.3-7-4.7-9.8-.1-.1-.1-.2 0-.3l7.8-11.7c.1-.1.2-.1.3-.1.1 0 .2.1.2.2v8c0 .1-.1.2-.2.2-1.5.5-2.6 2-2.6 3.6 0 2.1 1.7 3.8 3.8 3.8s3.8-1.7 3.8-3.8c0-1.6-1-3.1-2.6-3.6-.1 0-.2-.1-.2-.2v-8c0-.1.1-.2.2-.2s.2 0 .3.1l7.8 11.7c.1.1.1.2.1.3"/></svg>