<svg id="Capa_1" xmlns="http://www.w3.org/2000/svg" viewBox="0 0 482.4 512"><style>.st0{fill:#fff}</style><path class="st0" d="M226.2 365.3c2.8 4.9 8 8 13.7 8 5.7 0 10.9-3 13.7-8l76.7-135.4c1.8-3.2 2.4-6.8 1.8-10.4l-15.7-91.4V15.7c0-8.7-7-15.7-15.7-15.7H179.1c-8.7 0-15.7 7-15.7 15.7v112.4l-15.7 91.4c-.6 3.6 0 7.3 1.8 10.4l76.7 135.4zm29.5-67.5v-60.7c7.5-5.1 12.4-13.6 12.4-23.3 0-15.5-12.6-28.1-28.1-28.1s-28.1 12.6-28.1 28.1c0 9.7 4.9 18.2 12.4 23.3v60.7l-44.5-78.5 12.7-74.1h95l12.7 74.1-44.5 78.5zm29.2-266.3v82.2h-90.1V31.5h90.1z"/><path class="st0" d="M402.9 407.3c32.2-38.1 49.9-86.6 49.9-136.5v-14.3h14.6c8.3 0 15-6.7 15-15v-59.2c0-8.3-6.7-15-15-15h-59.2c-8.3 0-15 6.7-15 15v59.2c0 8.3 6.7 15 15 15h14.6v14.3c0 42.8-15.2 84.4-42.8 117.1-24.6 29.1-57.8 49.8-94.4 59v-9.1c0-8.3-6.7-15-15-15h-59.2c-8.3 0-15 6.7-15 15v9c-79.8-20.3-136.6-92.6-136.6-175.9v-14.3h14.6c8.3 0 15-6.7 15-15v-59.2c0-8.3-6.7-15-15-15H15c-8.3 0-15 6.7-15 15v59.2c0 8.3 6.7 15 15 15h14.6v14.3c0 76 40.6 144.2 102.8 181.5h-46C80.3 435.2 63.8 423 44.6 423 20.1 423 .2 442.9.2 467.4s19.9 44.4 44.4 44.4c19.2 0 35.6-12.3 41.8-29.4h109.9V497c0 8.3 6.7 15 15 15h59.2c8.3 0 15-6.7 15-15v-14.6h110.4c6.2 17.1 22.6 29.4 41.8 29.4 24.5 0 44.4-19.9 44.4-44.4S462.2 423 437.7 423c-19.2 0-35.6 12.3-41.8 29.4h-46.1c19.9-12 37.9-27.1 53.1-45.1zm20.3-209.9h29.1v29.1h-29.1v-29.1zm-393.1 0h29.1v29.1H30.1v-29.1zm14.5 284.3c-7.9 0-14.4-6.4-14.4-14.4 0-7.9 6.4-14.4 14.4-14.4 7.9 0 14.4 6.4 14.4 14.4s-6.5 14.4-14.4 14.4zm210.9.2h-29.1v-29.1h29.1v29.1zM437.7 453c7.9 0 14.4 6.4 14.4 14.4 0 7.9-6.4 14.4-14.4 14.4-7.9 0-14.4-6.4-14.4-14.4.1-7.9 6.5-14.4 14.4-14.4z"/></svg>